<svg width="62" height="62" viewBox="0 0 62 62" fill="none" xmlns="http://www.w3.org/2000/svg">
<path d="M19.5771 17.7275C13.5608 20.8185 9.44434 27.0862 9.44434 34.3154C9.44435 44.6085 17.7889 52.953 28.082 52.9531C34.7332 52.9531 40.57 49.4682 43.8682 44.2256C41.3181 45.5358 38.4265 46.2754 35.3623 46.2754C25.0691 46.2753 16.7246 37.9309 16.7246 27.6377C16.7246 23.9956 17.771 20.5983 19.5771 17.7275ZM35.3623 9C28.7113 9.00005 22.8754 12.4851 19.5771 17.7275C22.127 16.4175 25.0181 15.6778 28.082 15.6777C38.3753 15.6777 46.7197 24.0222 46.7197 34.3154C46.7197 37.9574 45.6742 41.3548 43.8682 44.2256C49.8842 41.1345 54 34.8667 54 27.6377C54 17.3445 45.6555 9 35.3623 9Z" fill="white"/>
</svg>
