<svg width="319" height="87" viewBox="0 0 319 87" fill="none" xmlns="http://www.w3.org/2000/svg">
<path d="M26.376 31.6514C20.3597 34.7423 16.2432 41.01 16.2432 48.2393C16.2432 58.5324 24.5878 66.8768 34.8809 66.877C41.5321 66.877 47.3688 63.3921 50.667 58.1494C48.1169 59.4596 45.2253 60.1992 42.1611 60.1992C31.868 60.1991 23.5234 51.8547 23.5234 41.5615C23.5235 37.9194 24.5699 34.5222 26.376 31.6514ZM42.1611 22.9238C35.5101 22.9239 29.6742 26.4089 26.376 31.6514C28.9258 30.3413 31.817 29.6016 34.8809 29.6016C45.1741 29.6016 53.5186 37.946 53.5186 48.2393C53.5185 51.8813 52.473 55.2787 50.667 58.1494C56.6831 55.0583 60.7988 48.7905 60.7988 41.5615C60.7988 31.2683 52.4543 22.9238 42.1611 22.9238Z" fill="white"/>
<path d="M77.8201 60.9004V28.6236H99.4914V32.6773H82.2026V42.3626H97.3002V46.3068H82.2026V60.9004H77.8201ZM103.547 49.1335C103.547 52.0405 104.168 54.2683 105.409 55.8167C106.666 57.3506 108.455 58.1175 110.778 58.1175C113.086 58.1175 114.854 57.3506 116.081 55.8167C117.308 54.2683 117.921 52.0405 117.921 49.1335C117.921 46.2411 117.308 44.0279 116.081 42.4941C114.854 40.9456 113.086 40.1714 110.778 40.1714C108.441 40.1714 106.651 40.9383 105.409 42.4721C104.168 44.006 103.547 46.2265 103.547 49.1335ZM99.5151 49.1335C99.5151 45.2039 100.494 42.1435 102.451 39.9522C104.423 37.761 107.184 36.6654 110.734 36.6654C114.299 36.6654 117.067 37.761 119.039 39.9522C121.011 42.1289 121.997 45.1893 121.997 49.1335C121.997 53.0777 121.011 56.1454 119.039 58.3367C117.081 60.5279 114.328 61.6235 110.778 61.6235C107.214 61.6235 104.445 60.5352 102.473 58.3586C100.501 56.1673 99.5151 53.0923 99.5151 49.1335ZM128.901 37.4323V51.8287C128.901 54.1368 129.259 55.7437 129.975 56.6494C130.705 57.5405 131.932 57.9861 133.656 57.9861C135.935 57.9861 137.659 57.3214 138.827 55.992C139.996 54.6481 140.58 52.676 140.58 50.0757V37.4323H144.525V60.9004H140.756V57.3944C139.938 58.753 138.879 59.7756 137.578 60.4621C136.278 61.1487 134.752 61.492 132.999 61.492C131.363 61.492 129.938 61.2145 128.726 60.6594C127.513 60.1042 126.586 59.3154 125.943 58.2928C125.578 57.7231 125.315 57.0584 125.154 56.2988C124.994 55.5246 124.913 54.3048 124.913 52.6395V51.5219V37.4323H128.901ZM164.379 60.9004V46.4602C164.379 44.1521 164.021 42.5598 163.305 41.6833C162.604 40.7922 161.392 40.3467 159.668 40.3467C157.462 40.3467 155.746 40.9748 154.518 42.2311C153.306 43.4728 152.7 45.2404 152.7 47.5339V60.9004H148.755V37.4323H152.524V40.8506C153.43 39.4921 154.504 38.4841 155.746 37.8267C156.987 37.1694 158.426 36.8407 160.062 36.8407C161.83 36.8407 163.32 37.1109 164.532 37.6514C165.745 38.1773 166.68 38.9735 167.337 40.0399C167.702 40.6096 167.965 41.2816 168.126 42.0558C168.287 42.8154 168.367 44.0279 168.367 45.6933V46.8108V60.9004H164.379ZM189.339 49.002C189.339 46.095 188.747 43.9038 187.564 42.4283C186.395 40.9529 184.657 40.2152 182.349 40.2152C180.128 40.2152 178.412 41.0259 177.199 42.6474C175.987 44.2543 175.381 46.5405 175.381 49.506C175.381 52.1793 176.002 54.2829 177.243 55.8167C178.5 57.3506 180.216 58.1175 182.393 58.1175C184.598 58.1175 186.308 57.3287 187.52 55.751C188.733 54.1733 189.339 51.9237 189.339 49.002ZM193.02 28.6236V60.9004H189.207V57.9422C188.199 59.1693 187.06 60.0896 185.789 60.7032C184.518 61.3167 183.116 61.6235 181.582 61.6235C178.456 61.6235 175.958 60.506 174.088 58.2709C172.233 56.0213 171.305 53.012 171.305 49.243C171.305 45.4011 172.24 42.348 174.11 40.0837C175.98 37.8048 178.47 36.6654 181.582 36.6654C183.218 36.6654 184.664 36.9722 185.921 37.5857C187.191 38.1846 188.287 39.0903 189.207 40.3028V28.6236H193.02ZM200.406 47.0299H213.291C213.276 44.8387 212.721 43.1514 211.625 41.9682C210.53 40.7703 208.974 40.1714 206.958 40.1714C205.015 40.1714 203.481 40.7557 202.356 41.9243C201.246 43.093 200.596 44.7949 200.406 47.0299ZM213.203 53.3187H217.103C216.68 55.9044 215.555 57.9422 213.729 59.4323C211.903 60.9223 209.602 61.6673 206.827 61.6673C203.569 61.6673 200.998 60.5717 199.113 58.3805C197.229 56.1892 196.287 53.2019 196.287 49.4183C196.287 45.4157 197.222 42.2895 199.092 40.0399C200.961 37.7902 203.54 36.6654 206.827 36.6654C210.201 36.6654 212.809 37.7026 214.649 39.7769C216.505 41.8513 217.432 44.7802 217.432 48.5638C217.432 49.0458 217.425 49.4037 217.41 49.6375C217.41 49.8712 217.396 50.0976 217.366 50.3168H200.428C200.472 52.7855 201.086 54.6992 202.269 56.0578C203.452 57.4017 205.096 58.0737 207.199 58.0737C208.806 58.0737 210.128 57.6647 211.165 56.8466C212.217 56.0139 212.896 54.838 213.203 53.3187ZM220.151 60.9004V37.4323H223.964V41.6395C224.592 40.0618 225.439 38.8858 226.506 38.1116C227.587 37.3228 228.909 36.9283 230.472 36.9283C230.764 36.9283 230.976 36.9356 231.107 36.9502C231.239 36.9502 231.37 36.9649 231.502 36.9941V41.1574C231.399 41.1428 231.282 41.1355 231.151 41.1355C231.02 41.1209 230.822 41.1136 230.559 41.1136C228.456 41.1136 226.849 41.6906 225.739 42.8447C224.643 43.9841 224.095 45.6494 224.095 47.8407V60.9004H220.151ZM233.716 60.9004V28.6236H238.143V56.8247H254.226V60.9004H233.716ZM269.983 57.7669C268.756 59.0525 267.449 60.0166 266.061 60.6594C264.688 61.3021 263.227 61.6235 261.678 61.6235C259.283 61.6235 257.413 61.0026 256.069 59.761C254.725 58.5046 254.053 56.7736 254.053 54.5677C254.053 52.4349 254.71 50.7623 256.025 49.5498C257.354 48.3373 259.37 47.5558 262.073 47.2052C262.759 47.1322 263.687 47.0299 264.856 46.8984C266.857 46.6939 268.084 46.4967 268.537 46.3068C268.99 46.1315 269.289 45.9051 269.435 45.6275C269.581 45.3354 269.654 44.7145 269.654 43.765C269.654 42.5671 269.216 41.6687 268.34 41.0698C267.463 40.4708 266.141 40.1714 264.374 40.1714C262.548 40.1714 261.167 40.5366 260.232 41.267C259.312 41.9974 258.852 43.0784 258.852 44.51H255.127V44.3347C255.127 41.9682 255.959 40.0983 257.625 38.7251C259.29 37.352 261.583 36.6654 264.505 36.6654C267.646 36.6654 269.954 37.257 271.429 38.4403C272.919 39.6089 273.664 41.4423 273.664 43.9403V55.6853C273.664 56.6932 273.774 57.3433 273.993 57.6355C274.212 57.9276 274.607 58.0737 275.176 58.0737C275.293 58.0737 275.432 58.0664 275.593 58.0518C275.768 58.0226 275.972 57.9861 276.206 57.9422V60.988C275.724 61.1195 275.3 61.2072 274.935 61.251C274.585 61.3094 274.249 61.3386 273.927 61.3386C272.613 61.3386 271.627 61.0538 270.969 60.4841C270.312 59.9143 269.983 59.0525 269.983 57.8984V57.7669ZM269.611 48.9582C268.559 49.5279 266.755 49.9735 264.198 50.2948C263.293 50.4117 262.613 50.5067 262.16 50.5797C260.729 50.8134 259.699 51.2371 259.071 51.8506C258.443 52.4642 258.129 53.3553 258.129 54.5239C258.129 55.6926 258.494 56.591 259.224 57.2191C259.955 57.8473 260.999 58.1614 262.358 58.1614C264.476 58.1614 266.214 57.6282 267.573 56.5618C268.931 55.4954 269.611 54.1295 269.611 52.4642V48.9582ZM281.861 49.002C281.861 51.9237 282.46 54.1733 283.658 55.751C284.856 57.3287 286.565 58.1175 288.786 58.1175C290.948 58.1175 292.649 57.3506 293.891 55.8167C295.147 54.2829 295.776 52.1793 295.776 49.506C295.776 46.5405 295.169 44.2543 293.957 42.6474C292.759 41.0259 291.05 40.2152 288.829 40.2152C286.507 40.2152 284.761 40.9529 283.592 42.4283C282.438 43.8891 281.861 46.0804 281.861 49.002ZM278.136 60.9004V28.6236H281.993V40.6973C282.899 39.3679 283.987 38.3672 285.258 37.6953C286.543 37.0087 287.989 36.6654 289.596 36.6654C292.708 36.6654 295.206 37.8048 297.09 40.0837C298.975 42.3626 299.917 45.4157 299.917 49.243C299.917 53.012 298.982 56.0213 297.112 58.2709C295.257 60.506 292.766 61.6235 289.64 61.6235C287.989 61.6235 286.543 61.324 285.302 60.7251C284.074 60.1262 282.972 59.1985 281.993 57.9422V60.9004H278.136Z" fill="white"/>
</svg>
